# xmcd CD database file generated by Grip 2.96
# 
# Track frame offsets:
#       150
#       23191
#       33987
#       56238
#       76116
#       93377
#       112102
#       127031
#       136289
#       148405
#       170231
#       191915
#       204599
#       219746
#       236208
# 
# Disc length: 3486 seconds
# 
# Revision: 0
# Processed by: cddbd v1.4PL0 Copyright (c) Steve Scherf et al.
# Submitted via: Grip 2.96
# 
DISCID=ef0d9c0f
DTITLE=The Cranberries - To the Faithful Departed
DYEAR=1900
DGENRE=
TTITLE0=Hollywood
TTITLE1=Salavation
TTITLE2=When You're Gone
TTITLE3=Free to Decide
TTITLE4=War Child
TTITLE5=Forever Yellow Skies
TTITLE6=The Rebels
TTITLE7=Intermission
TTITLE8=Just Shot John Lennon
TTITLE9=Electric Blue
TTITLE10=I'm still Remembering
TTITLE11=Will You Remember?
TTITLE12=Joe
TTITLE13=Cordell
TTITLE14=Bosnia
EXTD=
EXTT0=
EXTT1=
EXTT2=
EXTT3=
EXTT4=
EXTT5=
EXTT6=
EXTT7=
EXTT8=
EXTT9=
EXTT10=
EXTT11=
EXTT12=
EXTT13=
EXTT14=
PLAYORDER=
